<svg id="Layer_1" data-name="Layer 1" xmlns="http://www.w3.org/2000/svg" viewBox="0 0 321.04 515"><defs><style>.cls-1{fill:#fff;stroke:#000;stroke-miterlimit:10;stroke-width:3px;}</style></defs><title>tap</title><path class="cls-1" d="M175.37,0a8.26,8.26,0,0,0-8.26,8.26V41.32a8.26,8.26,0,0,0,16.53,0V8.26A8.26,8.26,0,0,0,175.37,0Z" transform="translate(-95.48 1.5)"/><path class="cls-1" d="M134.46,59.08,111.09,35.7A8.26,8.26,0,1,0,99.4,47.39l23.37,23.37a8.26,8.26,0,1,0,11.69-11.69Z" transform="translate(-95.48 1.5)"/><path class="cls-1" d="M251.33,35.7a8.27,8.27,0,0,0-11.69,0L216.27,59.08A8.26,8.26,0,0,0,228,70.76l23.37-23.37A8.26,8.26,0,0,0,251.33,35.7Z" transform="translate(-95.48 1.5)"/><path class="cls-1" d="M373.7,215.41a41.14,41.14,0,0,0-27.38,10.41,41.28,41.28,0,0,0-66.11-16.53,41.29,41.29,0,0,0-63.53-18.65V107.43a41.32,41.32,0,0,0-82.64,0v158.4A41.39,41.39,0,0,0,101,306.32V355.9a156.74,156.74,0,0,0,139.58,156,8.38,8.38,0,0,0,.92.05,8.26,8.26,0,0,0,.9-16.48A140.23,140.23,0,0,1,117.52,355.9V306.32A24.83,24.83,0,0,1,134,282.95v56.43a8.26,8.26,0,1,0,16.53,0V107.43a24.79,24.79,0,1,1,49.58,0V273.26a8.26,8.26,0,0,0,16.53,0V223.68a24.79,24.79,0,1,1,49.58,0v49.58a8.26,8.26,0,0,0,16.53,0V240.21a24.79,24.79,0,1,1,49.58,0v33.06a8.26,8.26,0,0,0,16.53,0V256.73a24.79,24.79,0,1,1,49.58,0V355.9A140.23,140.23,0,0,1,273.63,495.52a8.26,8.26,0,0,0,.9,16.48,8.63,8.63,0,0,0,.92-.05A156.74,156.74,0,0,0,415,355.9V256.73A41.37,41.37,0,0,0,373.7,215.41Z" transform="translate(-95.48 1.5)"/></svg>